{
  "asset": {
    "version": "2.0",
    "generator": "THREE.GLTFExporter"
  },
  "scenes": [
    {
      "name": "AuxScene",
      "nodes": [
        1
      ]
    }
  ],
  "scene": 0,
  "nodes": [
    {
      "matrix": [
        1,
        0,
        0,
        0,
        0,
        -3.029462689596585e-7,
        0.9999999657714298,
        0,
        0,
        -0.9999999657714298,
        -3.029462689596585e-7,
        0,
        0,
        0,
        0,
        1
      ],
      "name": "material",
      "extras": {
        "name": "material"
      },
      "mesh": 0
    },
    {
      "name": "hron_103",
      "children": [
        0
      ]
    }
  ],
  "bufferViews": [
    {
      "buffer": 0,
      "byteOffset": 0,
      "byteLength": 31008,
      "target": 34962,
      "byteStride": 12
    },
    {
      "buffer": 0,
      "byteOffset": 31008,
      "byteLength": 31008,
      "target": 34962,
      "byteStride": 12
    },
    {
      "buffer": 0,
      "byteOffset": 62016,
      "byteLength": 20672,
      "target": 34962,
      "byteStride": 8
    },
    {
      "buffer": 0,
      "byteOffset": 82688,
      "byteLength": 23708,
      "target": 34963
    }
  ],
  "buffers": [
    {
      "byteLength": 106396,
      "uri": "data:application/octet-stream;base64,"
    }
  ],
  "accessors": [
    {
      "bufferView": 0,
      "componentType": 5126,
      "count": 2584,
      "max": [
        0.05778556317090988,
        0.08167048543691635,
        0.08581632375717163
      ],
      "min": [
        -0.05075843259692192,
        -0.05929752439260483,
        -0.30723169445991516
      ],
      "type": "VEC3"
    },
    {
      "bufferView": 1,
      "componentType": 5126,
      "count": 2584,
      "max": [
        0.9994608759880066,
        0.9995827078819275,
        0.9983033537864685
      ],
      "min": [
        -0.9988123178482056,
        -0.9985383749008179,
        -0.9892168045043945
      ],
      "type": "VEC3"
    },
    {
      "bufferView": 2,
      "componentType": 5126,
      "count": 2584,
      "max": [
        0.9971709847450256,
        0.9955319762229919
      ],
      "min": [
        0.0012130000395700336,
        0.0012180209159851074
      ],
      "type": "VEC2"
    },
    {
      "bufferView": 3,
      "componentType": 5123,
      "count": 11853,
      "max": [
        2583
      ],
      "min": [
        0
      ],
      "type": "SCALAR"
    }
  ],
  "materials": [
    {
      "pbrMetallicRoughness": {
        "metallicFactor": 1,
        "roughnessFactor": 1,
        "metallicRoughnessTexture": {
          "index": 0,
          "channel": 0
        },
        "baseColorTexture": {
          "index": 1,
          "texCoord": 0
        }
      },
      "normalTexture": {
        "index": 2,
        "texCoord": 0
      },
      "doubleSided": true,
      "name": "Material.001",
      "extensions": {
        "KHR_materials_specular": {
          "specularFactor": 1,
          "specularColorFactor": [
            2,
            2,
            2
          ]
        }
      }
    }
  ],
  "textures": [
    {
      "sampler": 0,
      "source": 0,
      "name": "texture_pbr_20250901_metallic-texture_pbr_20250901_roughness"
    },
    {
      "sampler": 1,
      "source": 1,
      "name": "texture_pbr_20250901"
    },
    {
      "sampler": 2,
      "source": 2,
      "name": "texture_pbr_20250901_normal"
    }
  ],
  "samplers": [
    {
      "magFilter": 9729,
      "minFilter": 9987,
      "wrapS": 10497,
      "wrapT": 10497
    },
    {
      "magFilter": 9729,
      "minFilter": 9987,
      "wrapS": 10497,
      "wrapT": 10497
    },
    {
      "magFilter": 9729,
      "minFilter": 9987,
      "wrapS": 10497,
      "wrapT": 10497
    }
  ],
  "images": [
    {
      "mimeType": "image/png",
      "uri": "data:image/png;base64,"
    },
    {
      "mimeType": "image/png",
      "uri": "data:image/png;base64,"
    },
    {
      "mimeType": "image/png",
      "uri": "data:image/png;base64,"
    }
  ],
  "meshes": [
    {
      "primitives": [
        {
          "mode": 4,
          "attributes": {
            "POSITION": 0,
            "NORMAL": 1,
            "TEXCOORD_0": 2
          },
          "indices": 3,
          "material": 0
        }
      ]
    }
  ],
  "extensionsUsed": [
    "KHR_materials_specular"
  ]
}