<?xml version="1.0"?>
<svg width="32" height="32" xmlns="http://www.w3.org/2000/svg" xmlns:svg="http://www.w3.org/2000/svg">
 <g class="layer">
  <title>Layer 1</title>
  <path d="m10.67,28l13.06,0c1.5,0 2.24,0 2.81,-0.29c0.51,-0.26 0.91,-0.66 1.17,-1.17c0.29,-0.57 0.29,-1.31 0.29,-2.81l0,-2.13c0,-1.49 0,-2.24 -0.29,-2.81c-0.26,-0.5 -0.66,-0.91 -1.17,-1.17c-0.57,-0.29 -1.31,-0.29 -2.81,-0.29l-0.19,0m-8.87,-6.21l3.03,-3.03c1.05,-1.05 1.58,-1.58 2.19,-1.78c0.54,-0.17 1.11,-0.17 1.65,0c0.61,0.2 1.14,0.73 2.19,1.78l1.51,1.51c1.06,1.06 1.58,1.59 1.78,2.2c0.18,0.53 0.18,1.11 0,1.64c-0.2,0.61 -0.72,1.14 -1.78,2.2l-1.7,1.69m-8.87,-6.21l0,-2.85c0,-1.5 0,-2.24 -0.29,-2.81c-0.26,-0.51 -0.67,-0.91 -1.17,-1.17c-0.57,-0.29 -1.32,-0.29 -2.81,-0.29l-2.13,0c-1.5,0 -2.24,0 -2.81,0.29c-0.51,0.26 -0.91,0.66 -1.17,1.17c-0.29,0.57 -0.29,1.31 -0.29,2.81l0,15.46c0,1.5 0,2.24 0.29,2.81c0.26,0.51 0.66,0.91 1.17,1.17c0.57,0.29 1.31,0.29 2.81,0.29l2.13,0c1.49,0 2.24,0 2.81,-0.29c0.5,-0.26 0.91,-0.66 1.17,-1.17c0.01,-0.02 0.02,-0.05 0.04,-0.08m0.25,-15.34l0,12.61c0,1.42 0,2.17 -0.25,2.73m9.12,-9.13l-9.12,9.13m-5.09,-3.79l0.02,0" fill="none" id="svg_1" stroke="black" stroke-linecap="round" stroke-linejoin="round" stroke-width="2"/>
 </g>
</svg>