<svg xmlns="http://www.w3.org/2000/svg" viewBox="0 0 200 200" id="devLib_DCI2" style="width: 200px; height: 200px;"><path/><filter id="f2" x="-10" width="20" y="-10" height="20" color="#de2700"><feGaussianBlur in="SourceGraphic" stdDeviation="10"/></filter><g><g filter="url(#f2)"><line x1="-50" y1="-50" x2="-50" y2="-50"/><text x="23" y="168.5" font-size="44px" font-family="Arial, Helvetica, sans-serif" fill="#de2700">xz1</text><polyline points="160,40 150,40 140,40 130,40 120,50 110,50 100,50 90,50 80,50 70,60 60,60 60,70 50,70 40,70 40,80 40,90 40,100 40,110 50,110 60,120 70,120 80,120 90,120 100,120 110,120 120,120 130,120 140,120 150,120 150,130 160,130 170,130 170,140 170,150 160,150 150,150 150,160 140,160 130,160 120,160 110,160 100,160 100,170 90,170 80,170 70,170 60,170 50,170 40,170 40,180 30,180" stroke-linecap="round" fill="none" stroke="#de2700" stroke-width="24"/><text x="93" y="64" font-size="96px" font-family="Arial, Helvetica, sans-serif" fill="#de2700" ia="0">xz</text></g></g><text x="23" y="168.5" font-size="44px" font-family="Arial, Helvetica, sans-serif" fill="#b51a34" ia="0">xz1</text><polyline points="160,40 150,40 140,40 130,40 120,50 110,50 100,50 90,50 80,50 70,60 60,60 60,70 50,70 40,70 40,80 40,90 40,100 40,110 50,110 60,120 70,120 80,120 90,120 100,120 110,120 120,120 130,120 140,120 150,120 150,130 160,130 170,130 170,140 170,150 160,150 150,150 150,160 140,160 130,160 120,160 110,160 100,160 100,170 90,170 80,170 70,170 60,170 50,170 40,170 40,180 30,180" stroke-linecap="round" fill="none" stroke="#e7f313" stroke-width="24" ia="1"/><text x="93" y="64" font-size="96px" font-family="Arial, Helvetica, sans-serif" fill="#b51a34" ia="2">xz</text></svg>