<svg xmlns="http://www.w3.org/2000/svg" viewBox="0 0 200 200" id="devLib_DCI2" style="width: 200px; height: 200px;"><path/><filter id="f2" x="-10" width="20" y="-10" height="20" color="#de2700"><feGaussianBlur in="SourceGraphic" stdDeviation="10"/></filter><g><g filter="url(#f2)"><line x1="-50" y1="-50" x2="-50" y2="-50"/><line x1="60" y1="30" x2="20" y2="70" stroke="#de2700" stroke-width="11" stroke-linecap="butt"/><polyline points="100,40 150,40 140,100 80,110 100,180" stroke-linecap="butt" fill="#de2700" stroke="#de2700" stroke-width="6"/><path d="M 30 90C 80 90, 30 100, 30 100" stroke-linecap="butt" fill="#de2700" stroke="#de2700" stroke-width="6"/><path d="M 80 60C 40 100, 40 160, 40 160" stroke-linecap="butt" fill="#de2700" stroke="#de2700" stroke-width="6" ia="0"/><circle cx="150" cy="120" r="20" fill="#de2700" stroke="#de2700" stroke-width="6"/><rect x="140" y="170" width="30" height="20" rx="0" ry="0" fill="#de2700" stroke="#de2700" stroke-width="6"/><polyline points="80,190 70,190 60,190 50,190 40,190 30,190 30,180 20,180 20,170 20,160 10,160 10,150 10,140" stroke-linecap="butt" fill="#de2700" stroke="#de2700" stroke-width="6" ia="0"/><text x="103" y="31" font-size="24px" font-family="Arial" fill="#de2700">er</text></g></g><line x1="60" y1="30" x2="20" y2="70" stroke="#f84141" stroke-width="11" stroke-linecap="butt" ia="0" fill="#de2700"/><polyline points="100,40 150,40 140,100 80,110 100,180" stroke-linecap="butt" fill="#150036" stroke="#9818f5" stroke-width="6" ia="1"/><path d="M 30 90C 80 90, 30 100, 30 100" stroke-linecap="butt" fill="#150036" stroke="#9818f5" stroke-width="6" ia="2"/><path d="M 80 60C 40 100, 40 160, 40 160" stroke-linecap="butt" fill="#ffffff" stroke="#05ca76" stroke-width="6" ia="3"/><circle cx="150" cy="120" r="20" fill="#ffffff" stroke="#05ca76" stroke-width="6" ia="4"/><rect x="140" y="170" width="30" height="20" rx="0" ry="0" fill="#ffffff" stroke="#05ca76" stroke-width="6" ia="5"/><polyline points="80,190 70,190 60,190 50,190 40,190 30,190 30,180 20,180 20,170 20,160 10,160 10,150 10,140" stroke-linecap="butt" fill="#ffffff" stroke="#05ca76" stroke-width="6" ia="6"/><text x="103" y="31" font-size="24px" font-family="Arial" fill="#05ca76" ia="7">er</text></svg>